# xmcd CD database file
#
# Track frame offsets:
#	150
#	27130
#	44093
#	59820
#	75145
#	96150
#	112458
#	134153
#
# Disc length: 2170 seconds
#
# Revision: 3
# Processed by: cddbd v1.4PL0 Copyright (c) Steve Scherf et al.
# Submitted via: CDex 1.50beta10
#
DISCID=75087808
DTITLE=J. B. Hutto - Slidewinder
DYEAR=1990
DGENRE=Blues
TTITLE0=Slidewinder
TTITLE1=Blues Do Me A Favor
TTITLE2=Precious Stone
TTITLE3=Young Hawks' Crawl
TTITLE4=Too Late
TTITLE5=Letter From My Baby
TTITLE6=Shy Voice
TTITLE7=Boogie Right-On
EXTD=Delmark DD-636\n\nJ.B. Hutto:  guitar, vocals\nLee Jackson:  guitar\nElbert Buckner:  drums\nBombay Carter:  bass YEAR: 1990
EXTT0=
EXTT1=
EXTT2=
EXTT3=
EXTT4=
EXTT5=
EXTT6=
EXTT7=
PLAYORDER=
